<?xml version="1.0" encoding="UTF-8" standalone="no"?>
<!DOCTYPE svg PUBLIC "-//W3C//DTD SVG 1.1//EN"
 "http://www.w3.org/Graphics/SVG/1.1/DTD/svg11.dtd">
<!-- Generated by graphviz version 11.0.0 (20240428.1522)
 -->
<!-- Pages: 1 -->
<svg width="946pt" height="127pt"
 viewBox="0.00 0.00 946.25 127.00" xmlns="http://www.w3.org/2000/svg" xmlns:xlink="http://www.w3.org/1999/xlink">
<g id="graph0" class="graph" transform="scale(1 1) rotate(0) translate(4 123)">
<polygon fill="white" stroke="none" points="-4,4 -4,-123 942.25,-123 942.25,4 -4,4"/>
<!-- 4701103168 -->
<g id="node1" class="node">
<title>4701103168</title>
<polygon fill="none" stroke="black" points="405.75,-82.5 405.75,-118.5 602.25,-118.5 602.25,-82.5 405.75,-82.5"/>
<text text-anchor="middle" x="425.75" y="-95.7" font-family="Times,serif" font-size="14.00">Bias</text>
<polyline fill="none" stroke="black" points="445.75,-83 445.75,-118.5"/>
<text text-anchor="middle" x="483.38" y="-95.7" font-family="Times,serif" font-size="14.00">value [0.4]</text>
<polyline fill="none" stroke="black" points="521,-83 521,-118.5"/>
<text text-anchor="middle" x="561.62" y="-95.7" font-family="Times,serif" font-size="14.00">grad 0.0000</text>
</g>
<!-- 4701110176add -->
<g id="node7" class="node">
<title>4701110176add</title>
<ellipse fill="none" stroke="black" cx="673.5" cy="-72.5" rx="27" ry="18"/>
<text text-anchor="middle" x="673.5" y="-67.45" font-family="Times,serif" font-size="14.00">add</text>
</g>
<!-- 4701103168&#45;&gt;4701110176add -->
<g id="edge4" class="edge">
<title>4701103168&#45;&gt;4701110176add</title>
<path fill="none" stroke="black" d="M602.44,-84.21C614.23,-82.24 625.65,-80.33 635.73,-78.65"/>
<polygon fill="black" stroke="black" points="636.11,-82.13 645.4,-77.03 634.96,-75.23 636.11,-82.13"/>
</g>
<!-- 4701101200 -->
<g id="node2" class="node">
<title>4701101200</title>
<polygon fill="none" stroke="black" points="0,-55.5 0,-91.5 271.5,-91.5 271.5,-55.5 0,-55.5"/>
<text text-anchor="middle" x="30.5" y="-68.7" font-family="Times,serif" font-size="14.00">Weights</text>
<polyline fill="none" stroke="black" points="61,-56 61,-91.5"/>
<text text-anchor="middle" x="125.62" y="-68.7" font-family="Times,serif" font-size="14.00">value [ 0.5,&#45;0.2, 0.1]</text>
<polyline fill="none" stroke="black" points="190.25,-56 190.25,-91.5"/>
<text text-anchor="middle" x="230.88" y="-68.7" font-family="Times,serif" font-size="14.00">grad 0.0000</text>
</g>
<!-- 4701097696mul -->
<g id="node4" class="node">
<title>4701097696mul</title>
<ellipse fill="none" stroke="black" cx="334.5" cy="-45.5" rx="27" ry="18"/>
<text text-anchor="middle" x="334.5" y="-40.45" font-family="Times,serif" font-size="14.00">mul</text>
</g>
<!-- 4701101200&#45;&gt;4701097696mul -->
<g id="edge3" class="edge">
<title>4701101200&#45;&gt;4701097696mul</title>
<path fill="none" stroke="black" d="M266.61,-55.02C277.38,-53.49 287.59,-52.03 296.64,-50.75"/>
<polygon fill="black" stroke="black" points="296.91,-54.24 306.31,-49.37 295.92,-47.31 296.91,-54.24"/>
</g>
<!-- 4701097696 -->
<g id="node3" class="node">
<title>4701097696</title>
<polygon fill="none" stroke="black" points="397.5,-27.5 397.5,-63.5 610.5,-63.5 610.5,-27.5 397.5,-27.5"/>
<text text-anchor="middle" x="420.12" y="-40.7" font-family="Times,serif" font-size="14.00">None</text>
<polyline fill="none" stroke="black" points="442.75,-28 442.75,-63.5"/>
<text text-anchor="middle" x="486" y="-40.7" font-family="Times,serif" font-size="14.00">value 0.4000</text>
<polyline fill="none" stroke="black" points="529.25,-28 529.25,-63.5"/>
<text text-anchor="middle" x="569.88" y="-40.7" font-family="Times,serif" font-size="14.00">grad 0.0000</text>
</g>
<!-- 4701097696&#45;&gt;4701110176add -->
<g id="edge5" class="edge">
<title>4701097696&#45;&gt;4701110176add</title>
<path fill="none" stroke="black" d="M610.61,-62.52C619.35,-63.93 627.75,-65.29 635.4,-66.52"/>
<polygon fill="black" stroke="black" points="634.8,-69.97 645.23,-68.1 635.91,-63.06 634.8,-69.97"/>
</g>
<!-- 4701097696mul&#45;&gt;4701097696 -->
<g id="edge1" class="edge">
<title>4701097696mul&#45;&gt;4701097696</title>
<path fill="none" stroke="black" d="M361.67,-45.5C368.79,-45.5 376.98,-45.5 385.76,-45.5"/>
<polygon fill="black" stroke="black" points="385.64,-49 395.64,-45.5 385.64,-42 385.64,-49"/>
</g>
<!-- 4701094192 -->
<g id="node5" class="node">
<title>4701094192</title>
<polygon fill="none" stroke="black" points="25.88,-0.5 25.88,-36.5 245.62,-36.5 245.62,-0.5 25.88,-0.5"/>
<text text-anchor="middle" x="46.62" y="-13.7" font-family="Times,serif" font-size="14.00">Data</text>
<polyline fill="none" stroke="black" points="67.38,-1 67.38,-36.5"/>
<text text-anchor="middle" x="115.88" y="-13.7" font-family="Times,serif" font-size="14.00">value [1.,2.,3.]</text>
<polyline fill="none" stroke="black" points="164.38,-1 164.38,-36.5"/>
<text text-anchor="middle" x="205" y="-13.7" font-family="Times,serif" font-size="14.00">grad 0.0000</text>
</g>
<!-- 4701094192&#45;&gt;4701097696mul -->
<g id="edge6" class="edge">
<title>4701094192&#45;&gt;4701097696mul</title>
<path fill="none" stroke="black" d="M246.06,-33.5C264.2,-35.99 281.85,-38.41 296.48,-40.42"/>
<polygon fill="black" stroke="black" points="295.63,-43.84 306.02,-41.73 296.59,-36.9 295.63,-43.84"/>
</g>
<!-- 4701110176 -->
<g id="node6" class="node">
<title>4701110176</title>
<polygon fill="none" stroke="black" points="736.5,-54.5 736.5,-90.5 938.25,-90.5 938.25,-54.5 736.5,-54.5"/>
<text text-anchor="middle" x="759.12" y="-67.7" font-family="Times,serif" font-size="14.00">None</text>
<polyline fill="none" stroke="black" points="781.75,-55 781.75,-90.5"/>
<text text-anchor="middle" x="819.38" y="-67.7" font-family="Times,serif" font-size="14.00">value [0.8]</text>
<polyline fill="none" stroke="black" points="857,-55 857,-90.5"/>
<text text-anchor="middle" x="897.62" y="-67.7" font-family="Times,serif" font-size="14.00">grad 0.0000</text>
</g>
<!-- 4701110176add&#45;&gt;4701110176 -->
<g id="edge2" class="edge">
<title>4701110176add&#45;&gt;4701110176</title>
<path fill="none" stroke="black" d="M700.87,-72.5C707.99,-72.5 716.16,-72.5 724.89,-72.5"/>
<polygon fill="black" stroke="black" points="724.69,-76 734.69,-72.5 724.69,-69 724.69,-76"/>
</g>
</g>
</svg>
